<?xml version="1.0" encoding="UTF-8"?>
<svg id="_レイヤー_2" data-name="レイヤー 2" xmlns="http://www.w3.org/2000/svg" xmlns:xlink="http://www.w3.org/1999/xlink" viewBox="0 0 725 725">
  <defs>
    <style>
      .cls-1 {
        fill: url(#_名称未設定グラデーション_25);
      }

      .cls-1, .cls-2, .cls-3, .cls-4, .cls-5, .cls-6, .cls-7, .cls-8, .cls-9, .cls-10, .cls-11, .cls-12, .cls-13, .cls-14, .cls-15, .cls-16, .cls-17, .cls-18, .cls-19, .cls-20, .cls-21 {
        stroke-width: 0px;
      }

      .cls-22 {
        fill: #d1ffbf;
        stroke: #4caf4f;
        stroke-miterlimit: 10;
        stroke-width: 8px;
      }

      .cls-2 {
        fill: #f7e7d8;
      }

      .cls-3 {
        fill: #f3b297;
      }

      .cls-4 {
        fill: #f7d8c7;
      }

      .cls-5 {
        fill: #343b2c;
      }

      .cls-6 {
        fill: #262c18;
      }

      .cls-7 {
        fill: #2c402f;
      }

      .cls-8 {
        fill: #949379;
      }

      .cls-9 {
        fill: #3d5647;
      }

      .cls-10 {
        fill: #1d2e1f;
      }

      .cls-11 {
        fill: #141f1c;
      }

      .cls-12 {
        fill: #425039;
      }

      .cls-13 {
        fill: #20493a;
      }

      .cls-14 {
        fill: #16403b;
      }

      .cls-15 {
        fill: #d98674;
      }

      .cls-16 {
        fill: #c98e5e;
      }

      .cls-17 {
        fill: #c7e7e8;
      }

      .cls-18 {
        fill: #a54643;
      }

      .cls-19 {
        fill: #c26c5f;
      }

      .cls-20 {
        fill: #ecc0ac;
      }

      .cls-21 {
        fill: #f29888;
      }
    </style>
    <linearGradient id="_名称未設定グラデーション_25" data-name="名称未設定グラデーション 25" x1="518.9" y1="273.26" x2="218.8" y2="417.59" gradientUnits="userSpaceOnUse">
      <stop offset="0" stop-color="#f2c896"/>
      <stop offset=".77" stop-color="#f9e8c3"/>
    </linearGradient>
  </defs>
  <g id="_レイヤー_1-2" data-name="レイヤー 1">
    <g>
      <rect class="cls-22" x="4" y="4" width="717" height="717" rx="42.8" ry="42.8"/>
      <g>
        <path class="cls-17" d="m241.75,230.5c-26.95,14.79-80.51,18.72-111.75,27,.27-.47-1.23-1.13-.75-1.88l2.62-2.62c13.82-3.95,28.3-7.09,42.75-5.25.65-3.31,7.97-1.14,18.75-3,9.35-1.62,20.93-4.63,30-7.5,6.8-2.15,16.18-8.09,18.38-6.75Z"/>
        <g>
          <path class="cls-9" d="m277,494.5c-2.91.2-4.78,2.87-9-.75-14.26-20.41-38.16-44.4-55.5-75.75-6.61-11.82-10.82-24.86-17.25-36.75-11.8-21.83-24.78-44.96-39-65.25-8.62-12.3-12.86-17.35-22.5-28.5-4-4.63-8.46-8.77-12.75-13.12-.4-2.05,6.73-12.74,8.25-15.38,8.14,7.64,16.11,15.8,23.25,24.38,46.32,55.65,67.31,124.23,108,182.25,2.55,3.63,20.23,23.15,20.25,24.75.02,2.28-5.06,1.04-3.75,4.12Z"/>
          <path class="cls-14" d="m631.75,399.25c-.36,5.16-11.82,9.87-16.12,9-1.58,4.06-13.63,14.21-16.12,12.75,1.82-4.59.62-5.02.75-5.25,1.46-2.56,3.4-5.2,5.25-7.5,5.88-7.3,9.66-8.51,18-12.75,3.66-.8,5.65,1.69,8.25,3.75Z"/>
          <path class="cls-13" d="m390.25,102.25c5.13,5.15-6.52,9.52-15,15.75-.24-.19-1.06,1.58-4.88-2.25-3.9-3.91-1.55-3.34-1.88-3.75,8.18-3.91,12.68-11.42,21.75-9.75Z"/>
          <path class="cls-14" d="m300.25,514c5.62,3.7,51.66,66.21,55.88,68.25,13.28,6.42,18.02-3.4,26.62-10.5,4.21,2.31,7-3.15,6.75,0-2.53,1.88-4.93,4.1-7.5,6-11.07,8.2-20.08,13.01-21.75,14.25-2.26,1.67-6.26,1.89-2.25,9.75-5.35-2.47-1.36-4.21-3-7.88-.33-.73-4.05-1.25-12-10.5-16.85-19.62-32.06-38.84-50.25-57.38-.18-.98-3.04-5.31-3-5.62.08-.7,6.69-8.88,10.5-6.38Z"/>
          <path class="cls-14" d="m277,494.5c2.08-.14,4.41-1.27,6.38-.75,1.27.34,15.32,17.34,16.88,20.25-3.81-2.51-10.42,5.67-10.5,6.38-.04.32,2.82,4.64,3,5.62-2.66-2.71-27.78-24.38-26.25-26.62.35-.52,1.27-.07,3-1.13.44-.27,1.55,1.8,1.5-.38-3.35-2.71-2.85-3.92-3-4.12,4.22,3.62,6.09.95,9,.75Z"/>
          <g>
            <path class="cls-1" d="m377.5,133c2.61,2.05,4.31,7.38,8.25,5.25-.28.79-.95,1.06-.75,1.88,10.61,13.06,24.21,26.04,34.5,39,8.53,10.74,17.09,25.12,22.5,32.25,28.67,37.78,44.92,54.34,66,99,.36.76,1.36,1.33,2.25,1.12-.58,5.75-.42,8.59,5.25,6,7.99,10.96,19.32,31.44,27.75,40.12,9.5,9.79,23.86,13.73,40.5,35.62.94,1.24,1.32,3.22,2.25,4.5,4.32,5.95,7.8,13.39,14.25,18-.13.23,1.07.66-.75,5.25l-1.5,3c-17.04,7.54-30.7,20.32-45.75,30.75-20.89,14.48-42.51,27.63-63,42.75-29,16.05-80.38,52.68-106.5,74.25-8.6,7.1-13.35,16.92-26.62,10.5-4.21-2.04-50.25-64.55-55.88-68.25-1.56-2.91-15.6-19.91-16.88-20.25-1.96-.52-4.3.61-6.38.75-1.31-3.08,3.77-1.84,3.75-4.12-.02-1.6-17.7-21.12-20.25-24.75-40.69-58.02-61.68-126.6-108-182.25-7.14-8.57-15.11-16.74-23.25-24.38.13-.23.29-.7.75-1.5,31.24-8.28,84.8-12.21,111.75-27,14.28-7.83,49.21-40.74,61.5-53.62,18.07-18.95,44.07-55.4,56.25-64.88,2.88,6.56,11.57,17.29,16.88,21.75.05.04.76-1.04,1.12-.75Z"/>
            <g>
              <path class="cls-19" d="m510.63,388.75c2.8-.04,5.01,5.1,4.88,5.62-1.31,5.17-83.78,43.42-93.38,51.38-4.32-.73-7.86-3.74-3.75-7.5,3.45-3.16,47.95-24.51,57-29.25,4.89-2.56,33.22-20.22,35.25-20.25Z"/>
              <g>
                <path class="cls-19" d="m443.13,279.25c5.41,6.86,4.87,6.43-1.5,10.5-17.38,11.1-72.96,36.83-96,51-7.89-3.08-1.86-6.85,2.25-9.75,12.38-8.73,74.48-37.65,95.25-51.75Z"/>
                <path class="cls-19" d="m448.38,308.5c1.53,2.25,4.58,6.19,2.25,7.5l-93.75,47.25c-3.05,1.05-4.12-3.38-3.38-5.62,1.69-5.08,84.2-43.44,94.87-49.12Z"/>
              </g>
              <path class="cls-19" d="m447.63,365.5c5.48-.86,9.6,3.03,5.25,7.5-3.13,3.22-75.81,39.77-80.25,40.5-5.28.87-5.14-4.91-3-7.5,1.59-1.92,38.98-18.64,45-21.75,5.16-2.67,30.54-18.36,33-18.75Z"/>
              <g>
                <path class="cls-19" d="m297.63,251.5c3.38-.15,4.22,4.01,3.38,6.38-1.56,4.34-78.34,39.48-83.62,37.88-1.62-.49-4.59-4.36-.75-7.5,1.69-1.38,34.58-13.78,40.5-16.5,5.67-2.6,38.24-20.15,40.5-20.25Z"/>
                <path class="cls-19" d="m277.38,286c1.29-.14,3.48-.29,4.12,1.12,4.95,10.8-40.82,25.51-48.38,27.38-12.21,3.02-28.95,7.55-24.38-1.88,1.51-3.12,26.5-7.55,31.88-9.38,9.5-3.23,34.73-17.04,36.75-17.25Z"/>
              </g>
              <path class="cls-19" d="m401.88,216.25c.56.09,3.51,5.79,3.38,6.38-.9,3.75-62.82,37.88-66.38,39.38-10.16,4.26-10.35-1.53-6.75-5.25l69.75-40.5Z"/>
              <path class="cls-19" d="m545.88,398.5c1.74.09,5.69,5.84,3,9-2.08,2.44-52.53,31.03-55.5,32.25-10.61,4.36-10.92-1.36-6.75-5.25,8.18-2.91,55.79-36.18,59.25-36Z"/>
              <path class="cls-19" d="m419.88,350.5c4.1-.38,6.46,4.55,3.75,7.5-8.91,2.27-62.32,35.08-66,34.5-.76-.12-4.86-4.15-.75-8.25,2.53-2.52,59.44-33.42,63-33.75Z"/>
              <g>
                <path class="cls-19" d="m302.88,338.5c4.56-.43,5.5,4.5,3,7.5-2.13,2.55-56.53,31.61-60.38,18.38-2.95-10.14,12.05-4.85,22.12-7.88,4.62-1.39,33.28-17.82,35.25-18Z"/>
                <path class="cls-19" d="m293.13,311.5c4.28-.49,6.8,3.02,5.62,6.38-1.08,3.09-55.2,29.98-58.5,19.5-2.62-8.31,9.97-6.18,25.12-11.62,7.25-2.61,26.2-14.07,27.75-14.25Z"/>
              </g>
              <path class="cls-19" d="m380.13,255.25c3.64-.16,6.96,3.87,3,7.5-2.28,2.09-53.17,25.29-56.25,25.5-4.67.31-5.41-4.34-3-7.5,7.86-2.27,53.16-25.37,56.25-25.5Z"/>
              <path class="cls-16" d="m413.13,524.5c1.95.04,4.76,4.18,4.12,6.37-.82,2.82-48.44,28.25-51.38,28.13-1.17-.05-5.36-2.92-2.25-6.75,1.79-2.2,43.33-23.51,49.5-27.75Z"/>
              <path class="cls-19" d="m498.63,365.5c3.23-.17,7.06,5.61,1.5,9.75-1.72,1.28-36.12,19.25-38.25,19.5-5.54.65-7.76-5.07-2.25-9.75,1.66-1.41,36.82-19.38,39-19.5Z"/>
              <path class="cls-19" d="m366.63,181c4.9-.6,6.59,3.74,3,7.5-1.78,1.87-43.17,23.92-45.75,24-2.56.08-6.63-3.95-3-7.5,1.85-1.81,43.19-23.69,45.75-24Z"/>
              <path class="cls-19" d="m438.63,401.5c4.96-.5,6.87,5.53,2.25,7.5-6.55,1.91-43.13,25.51-45.75,25.5-2.49-.01-4.71-3.24-4.12-5.62.66-2.67,44.89-27.1,47.62-27.38Z"/>
              <path class="cls-16" d="m322.38,406.75c2.25.12,3.92,5.75,3,7.5-.73,1.38-23.48,13.58-27,15.75-3.42,2.11-12.31,10.59-15.75,9.75-1.5-.37-5.38-4.48-.75-9,1.68-1.64,38.15-24.12,40.5-24Z"/>
              <path class="cls-16" d="m359.88,472.75c4.12-.3,4.94,5.22,4.88,5.62-.44,2.78-40.39,21.19-44.62,19.87-2.8-.87-4.37-7.32,0-9.75,3.62-2.02,6.41.56,8.25,0,4.92-1.49,29.74-15.62,31.5-15.75Z"/>
              <path class="cls-19" d="m386.13,195.25c2,.03,4.76,5.25,3,7.5-1.53,1.95-39.48,25.31-42.75,24-3.97-1.59-1.33-5.45.75-7.5,1.63-1.61,36.71-24.03,39-24Z"/>
              <path class="cls-19" d="m405.63,268.75c3.22-.17,7.22,4.12,2.25,8.25-1.51,1.25-33.38,16.65-35.25,17.25-2.79.89-7.43,2.36-7.12-2.62.15-2.4,37.8-22.75,40.12-22.88Z"/>
              <path class="cls-19" d="m467.13,436c2.72.12,4.02,5.19,3.38,7.12-.65,1.96-33.57,20.48-35.62,20.62-3.67.26-6.24-3.63-4.5-6.75,1.03-1.85,34.64-21.09,36.75-21Z"/>
              <path class="cls-16" d="m386.88,511.75c3.11-.17,6.18,4.54,2.25,8.25-1.45,1.37-34.01,17.07-36,17.25-3.61.33-6.5-3.79-3.75-6.75,1.43-1.54,35.41-18.64,37.5-18.75Z"/>
              <path class="cls-16" d="m334.38,429.25c.8.15,5,7.36,3,7.5-5.15,1.02-41.98,26.37-40.12,12.37.06-.46,1.74-2.64,2.62-3.37,1.47-1.22,32.62-16.86,34.5-16.5Z"/>
              <path class="cls-16" d="m344.88,448.75c3.49-.19,4.84,4.82,4.12,7.13-.55,1.77-29.29,19.61-31.12,19.88-3.72.53-5.84-3.48-4.88-6.38.6-1.8,29.98-20.52,31.88-20.63Z"/>
              <path class="cls-16" d="m372.63,493c.85.1,4.16,5.28,4.12,5.62-.17,1.84-30.04,18.17-31.88,18.38-3.86.42-8.01-2.86-3.75-6.75,1.33-1.21,29.72-17.45,31.5-17.25Z"/>
              <g>
                <path class="cls-16" d="m310.38,386.5c.66.07,4.2,6,4.12,6.38-.25,1.3-20.55,12.94-22.12,14.62-1.58,1.7-1.45,5-2.62,6.38-4.95,5.76-10.3-2.47-5.25-9.75.89-1.29,24.32-17.78,25.88-17.63Z"/>
                <path class="cls-16" d="m300.63,367c1.48.15,3.38,4.58,3.38,4.88-.03,2.61-27.14,18.3-28.88,18.38-3.75.17-4.54-4.43-2.25-7.5.95-1.28,26.16-15.91,27.75-15.75Z"/>
              </g>
            </g>
          </g>
          <g>
            <g>
              <path class="cls-11" d="m121,370c13.76,14.39,23.74,20.75,38.62,33,2.19-3.08,2.04.65,4.88.75,4.07,5.18,31.61,22.43,39.75,29.25,21.59,18.08,58.5,63.4,62.62,65.25.43.19,1.68-.12,2.62,0-1.73,1.06-2.65.61-3,1.13-1.53,2.25,23.59,23.92,26.25,26.62,18.19,18.53,33.4,37.75,50.25,57.38,7.95,9.25,11.67,9.77,12,10.5,1.64,3.66-2.35,5.41,3,7.88,2.28,1.05,4.18,1.53,6.75.75l1.5.75c-.94.74-3.49,4.17-6.75,6.75-.54-.12-1.03-.48-1.5-.75-1.68-.95-1.89.38-4.12-.75-9.81-4.93-49.83-37.07-62.25-45.75-50.54-49.93-101.08-100.34-159-141.75-5.96-4.73.03-11.66.38-16.5.09-1.31.19-5.05,0-5.62-.69-2.06-29.76-28.4-30.75-30.75-2.62-6.2,4.1-12.67,4.5-13.88,4.8,5.21,9.35,10.63,14.25,15.75Z"/>
              <path class="cls-14" d="m133,404.5c-.35,4.84-6.34,11.77-.38,16.5,57.92,41.41,108.46,91.82,159,141.75,12.42,8.68,52.44,40.82,62.25,45.75,2.24,1.13,2.44-.2,4.12.75-9.42,5.87-19.37,10.73-29.25,15.75-29.83-26.47-57.2-55.62-86.62-82.5-42.18-38.54-86.9-74.4-130.12-111.75-3.76-3.25-7.51-6.48-11.25-9.75-5.47-4.78-10.84-9.69-16.5-14.25.28-1.03-1.98,0,1.88-3,20.35-10.46,28.21-20.44,46.88.75Z"/>
            </g>
            <g>
              <path class="cls-2" d="m121,370c-4.9-5.12-9.45-10.54-14.25-15.75.24-.72.55-1.54.75-2.25,1.48-2.18,4.02-5.4,5.25-7.5,1.52,2.01,12.59,12.95,12.75,13.88.34,1.99-4.17,5.35-4.5,11.62Z"/>
              <path class="cls-21" d="m133.75,319c6.55,13.78,14.04,27.14,23.25,39.38,3.84,5.11,47.4,55.9,50.25,58.5,1.71,1.56,5.3,5.23,5.25,1.12,17.34,31.35,41.24,55.34,55.5,75.75.15.21-.35,1.41,3,4.12.05,2.17-1.06.1-1.5.38-.95-.12-2.2.19-2.62,0-4.13-1.85-41.03-47.17-62.62-65.25-1.14-5.8-12.3-14.55-17.25-19.5-14.66-14.65-31.68-30.62-47.25-44.25,4.51-.97-10.89-22.98-13.5-26.25-.49-16.17-11.91-12.99,7.5-24Z"/>
              <path class="cls-21" d="m126.25,343c2.61,3.27,18.01,25.28,13.5,26.25-4.02-3.51-9.13-6-12.38-10.5-1.38,10.7,25.36,28.6,35.62,36.75.07,1.42-1.66,4.14-1.5,4.88.05.22,1.22,1.11,3,3.38-2.84-.1-2.69-3.83-4.88-.75-14.88-12.25-24.86-18.61-38.62-33,.33-6.27,4.84-9.64,4.5-11.62-.16-.93-11.23-11.87-12.75-13.88,1.89-3.23,2.82-7.06,5.62-9.75,1.07-.16,6.89,7.02,7.88,8.25Z"/>
              <path class="cls-19" d="m187,413.5c4.95,4.95,16.11,13.7,17.25,19.5-8.14-6.82-35.68-24.07-39.75-29.25-1.78-2.27-2.95-3.15-3-3.38-.16-.74,1.57-3.46,1.5-4.88,7.41,5.88,18.57,16.1,24,18Z"/>
              <path class="cls-19" d="m148.75,316c2.82,2.22,36.18,49.01,39.75,58.12l6.75,7.12c6.43,11.89,10.64,24.93,17.25,36.75.05,4.11-3.54.44-5.25-1.12-2.85-2.6-46.41-53.39-50.25-58.5-9.21-12.23-16.7-25.59-23.25-39.38,5.33-3.02,8.43-8.19,15-3Z"/>
              <path class="cls-3" d="m156.25,316c14.22,20.29,27.2,43.42,39,65.25l-6.75-7.12c-3.57-9.12-36.93-55.9-39.75-58.12h7.5Z"/>
              <path class="cls-18" d="m139.75,369.25c15.57,13.63,32.59,29.6,47.25,44.25-5.43-1.9-16.59-12.12-24-18-10.27-8.15-37-26.05-35.62-36.75,3.25,4.5,8.36,6.99,12.38,10.5Z"/>
            </g>
          </g>
          <g>
            <path class="cls-3" d="m368.5,112c.32.41-2.03-.16,1.88,3.75,3.81,3.83,4.64,2.06,4.88,2.25,3.18,2.57,5.97,6.22,9.75,8.25-2.49,2.17-4,5.67-7.5,6.75-.37-.29-1.07.79-1.12.75-5.31-4.46-13.99-15.19-16.88-21.75,2.53-1.97,4.04-4.17,5.62-4.5,1.54,1.2,2.22,3.02,3.38,4.5Z"/>
            <path class="cls-3" d="m406,154.75c-1.04,14.62,9.46,1.31,14.25-3-2.35,4.81,5.6,9.51,5.25,15-.27.16-1.34,1.99-5.25,3.38-.2.82,4.46,3.95,5.25,4.88,5.08,5.97,10.57,12.3,15,18.75.27.39-.79,1.07-.75,1.12,4.71,6.96,5.05,5.3,5.25,5.62,1.68,2.81,4.8,7.87,6,10.5.19.42-2.82,1.46.75,4.88,2.81,2.7,1.63,1.53,4.5,1.12,4.72,6.15,14.99,22.13,21,20.25,1.52,2.61,2.84,6.61,6,7.5-1.73,1.19-3.16,2.72-5.25,3.38.2,3.89,4.29,4.62,4.5,4.88,2.48,3.03,4.43,6.6,6.75,9.75,3.17,4.31,5.02,5.68,5.25,6,3.45,4.86,9.65,14.36,12.75,19.5,1.23,2.03,2.58,3.9,3.75,6,2.22,3.99,4.12,9.25,6,13.5-2.2,1.29-4.33,2.93-6.75,3.75-.89.2-1.89-.37-2.25-1.12-21.08-44.66-37.33-61.22-66-99-5.41-7.13-13.97-21.51-22.5-32.25-10.29-12.96-23.89-25.94-34.5-39-.2-.81.47-1.08.75-1.88.56-1.62,2.16-2.12,2.25-2.25,1,2.13,2.09-1.39,4.12-.75,1.04.33,11.92,14.43,15.38,15.38-.8,1.77-1.35,1.97-1.5,4.12Z"/>
            <path class="cls-3" d="m540.25,340c-1.75,1.44-3.68,1.63-3.75,3.38-.01.3,3.09,4.8,3.38,4.88.12.03.82-1.13,1.88-1.5,4.67,4.09,8.18,9.75,11.25,14.25.04.06-1.35.17-.75,1.12,3.92,6.25,7.15,4.22,12,.38,5.4,2.89,25.06,22.43,23.25,27.75-1.4.84-3.14,1.18-3.75,3-16.64-21.9-31-25.83-40.5-35.62-8.43-8.69-19.76-29.16-27.75-40.12.29-.13.96-1.35,5.25-3.75,6.23,7.69,16.27,17.32,19.5,26.25Z"/>
            <path class="cls-5" d="m546.25,299.5c-4.88,2.15-9.65,4.83-14.25,7.5-3.78,2.19-7.43,4.61-11.25,6.75-4.29,2.4-4.96,3.62-5.25,3.75-5.67,2.59-5.83-.25-5.25-6,2.42-.82,4.55-2.46,6.75-3.75,1.74-1.01,3.5-2,5.25-3,3.29-1.89,6.83-3.54,9.75-6,3.44-.78,5.83-3.21,9-4.5.25.28.01-.7,5.25,5.25Z"/>
            <path class="cls-7" d="m610,379l3,5.25c-5.92,3.4-12,6.5-18,9.75-4.35,2.35-8.02,4.91-9,3.75-.93-1.28-1.31-3.26-2.25-4.5.61-1.82,2.35-2.16,3.75-3,2.92-1.75,5.99-3.69,9-5.25,4.28-2.22,9.09-4.01,13.5-6Z"/>
            <path class="cls-3" d="m605.5,408.25c-1.85,2.3-3.79,4.94-5.25,7.5-6.45-4.61-9.93-12.05-14.25-18,.98,1.16,4.65-1.4,9-3.75,2.83,4.37,6.34,14.65,10.5,14.25Z"/>
            <path class="cls-2" d="m602.5,364c-2.59.9-11.33,7.27-12,7.5-5.46,1.84-7.63-7.07-10.12-8.25-.79-.37-1.94.51-3.38,0,1.69-2.48,13.39-5.31,13.5-7.88.23-5.19-10.35-7.38-15.75,2.62-2.14-.86.8-3.92.75-4.12-.43-1.83-20.39-26.23-23.25-29.62l12.75-3.75c13.56,13.48,27.19,27.45,37.5,43.5Z"/>
            <path class="cls-2" d="m449.5,169.75c-16.87,5.19-9.04,16.5,4.5,6.75,1.95,2.54,4.06,4.89,6,7.5-2.49,1.27-5.01,2.48-7.5,3.75-8.58,1.97-5.54-1.41-8.25-4.12-11.69-11.68-.16-7.77-8.25-16.12-4.4-4.55-5.01-4.02-10.5-.75.35-5.49-7.6-10.19-5.25-15,2.43-2.19,5.5-3.87,8.25-5.62.27-.81-.97-1.61-1.5-2.62l2.25.38c5.96,9.25,13.54,17.18,20.25,25.88Z"/>
            <path class="cls-2" d="m511,264.25c-12.35,10.28.87,8.11,8.25,3.75,5.56,1.88,7.85,8.5,8.25,9l-20.25,11.25c-3.1-5.14-9.3-14.64-12.75-19.5,3.32-2.41,6.55-4.93,9.75-7.5.7,9.89,4.23,1.4,6.75,3Z"/>
            <path class="cls-2" d="m623.5,395.5c-8.34,4.24-12.12,5.45-18,12.75-4.16.4-7.67-9.88-10.5-14.25,6-3.25,12.08-6.35,18-9.75l10.5,11.25Z"/>
            <path class="cls-2" d="m404.5,125.5c3.8,2.34,9.87,9.1,13.5,5.25,1.17,2.95,3.71,4.53,5.25,7.12.04.07-1.01.71-.75,1.12-3.27,3.45-7.14,6.39-10.5,9.75,2.51-2.33-14.38-13.25-19.5-15.75,3.44-2.86,9.52-9.39,12-7.5Z"/>
            <path class="cls-2" d="m466.75,193c2.34,3.11,4.01,7.59,6.75,10.5l-22.5,7.5c-1.2-2.63-4.32-7.69-6-10.5,6.67-4.16,13.67-9.25,21.75-7.5Z"/>
            <path class="cls-2" d="m477.25,209.5c4.97,5.8,8.22,13.13,9,14.25-2.24,1.23-10.93,6.66-12,6.75-8.09.69-5.81-12.15-15-15,2.33-.69,17.17-5.54,18-6Z"/>
            <path class="cls-2" d="m546.25,299.5c.5.57,8.97,6.78,11.25,10.12,2.07,2.34,2.81,4.66,3,4.88-4.92,1.31-12.61,5.09-10.5,6.75-.13-.18-1.99.37-2.25-.38-.56-1.62,4.64-3.28,1.88-4.88-6.81-1.61-10.95-7.93-17.62-9,4.6-2.67,9.37-5.35,14.25-7.5Z"/>
            <path class="cls-7" d="m427,143.5c.53,1.01,1.77,1.82,1.5,2.62-2.75,1.76-5.82,3.43-8.25,5.62-4.79,4.31-15.29,17.62-14.25,3,2.52-1.44,4.02-4.03,6-6,3.36-3.36,7.23-6.3,10.5-9.75.17.27,3.31,2.23,4.5,4.5Z"/>
            <path class="cls-2" d="m496.75,237.25c-1.36,1.04-3.02,2.18-4.5,3-2.47,1.36-6.99,3.11-9,4.5-3.16-.89-4.48-4.89-6-7.5-.48-.82-1.06-1.41-1.5-2.25l13.5-6.75c2.24,2.92,5.11,6.1,7.5,9Z"/>
            <path class="cls-7" d="m477.25,209.5c-.83.46-15.67,5.31-18,6-1.03.3-2.3,1.4-3,1.5-2.87.41-1.69,1.57-4.5-1.12-3.57-3.42-.56-4.45-.75-4.88l22.5-7.5c.25.27,1.74-1.08,6,4.12-.73.59-2.12,1.8-2.25,1.88Z"/>
            <path class="cls-7" d="m504.25,261.25c-3.2,2.57-6.43,5.09-9.75,7.5-.23-.32-2.08-1.69-5.25-6,2.41-2.93,5.9-4.72,9-6.75,3.48-2.29,7.04-4.43,10.5-6.75,1.38,1.74,2.88,3.36,4.5,4.88-2.77,2.67-6.01,4.73-9,7.12Z"/>
            <path class="cls-7" d="m466.75,193c-8.08-1.75-15.08,3.34-21.75,7.5-.2-.33-.54,1.34-5.25-5.62-.04-.06,1.02-.73.75-1.12,4.16-1.66,8.02-3.96,12-6,2.49-1.27,5.01-2.48,7.5-3.75,2.23,3,4.5,6.01,6.75,9Z"/>
            <path class="cls-2" d="m541,294.25c-3.17,1.29-5.56,3.72-9,4.5-6.96,1.57-3.92-7.03-12-9.75,3.91-2.22,7.69-4.58,12-6,2.34,2.89,7.77,9.85,9,11.25Z"/>
            <path class="cls-7" d="m527.5,277c1.58,1.98,2.98,4.12,4.5,6-4.31,1.42-8.09,3.78-12,6-2.43,1.38-4.46,3.05-6.75,4.5-.1.06-1.13-.1-2.25.75-1.17-2.1-2.52-3.97-3.75-6l20.25-11.25Z"/>
            <g>
              <path class="cls-10" d="m387.25,125.5c-2.16,4.17,6.11,2.56,3,8.25-1.05,1.92-2.16,2.12-2.25,2.25s-1.69.63-2.25,2.25c-3.94,2.13-5.64-3.2-8.25-5.25,3.5-1.08,5.01-4.58,7.5-6.75.96-.84,2.16-.67,2.25-.75Z"/>
              <path class="cls-14" d="m405.25,122.5c.09.45-1.16,1.12-.75,3-2.48-1.89-8.56,4.64-12,7.5-.56.47-1.46.89-2.25.75,3.11-5.69-5.16-4.08-3-8.25,4.9-4.18,15.22-17.09,18-3Z"/>
            </g>
            <path class="cls-7" d="m607,371.5c-2.88,1.02-8.68,4.12-10.5,4.5-.64.14-2.16,1.38-3.38.75-.42-.22-1.86-4.15-2.62-5.25.67-.23,9.41-6.6,12-7.5,1.62,2.53,2.95,5.05,4.5,7.5Z"/>
            <path class="cls-10" d="m418,130.75c-3.63,3.85-9.7-2.91-13.5-5.25-.41-1.88.84-2.55.75-3,17.33-3.63,12.38,7.31,12.75,8.25Z"/>
            <path class="cls-2" d="m508.75,249.25c-3.46,2.32-7.02,4.46-10.5,6.75l-3.75-9c2.7-1.4,7.68-2.93,7.5-5.25,2.18,2.5,4.72,4.92,6.75,7.5Z"/>
            <path class="cls-2" d="m610,379c-4.41,1.99-9.22,3.78-13.5,6,4.2-3.05,1.13-5.25,0-9,1.82-.38,7.62-3.48,10.5-4.5,1.05,1.67,3.87,6.52,3,7.5Z"/>
            <path class="cls-7" d="m449.5,169.75c1.64,2.13,2.93,4.7,4.5,6.75-13.54,9.75-21.37-1.56-4.5-6.75Z"/>
            <path class="cls-13" d="m519.25,268c-7.38,4.36-20.6,6.53-8.25-3.75.73-.61,6.71-4.59,7.12-4.5.54.11,6.24,5.22,1.12,8.25Z"/>
            <path class="cls-7" d="m560.5,314.5c.74.84,5.52,4.05,4.5,6l-12.75,3.75c-1.02-1.21-1.39-1.82-2.25-3-2.11-1.66,5.58-5.44,10.5-6.75Z"/>
            <path class="cls-5" d="m489.25,228.25l-13.5,6.75c-.74-1.4-1.73-2.78-1.5-4.5,1.07-.09,9.76-5.52,12-6.75.15.21,2.67,1.93,3.75,3.38.04.05-1.03.76-.75,1.12Z"/>
            <path class="cls-4" d="m452.5,187.75c-3.98,2.04-7.84,4.34-12,6-4.43-6.45-9.92-12.78-15-18.75l10.5-7.5c8.09,8.36-3.44,4.45,8.25,16.12,2.71,2.71-.33,6.1,8.25,4.12Z"/>
            <path class="cls-3" d="m412,148.75c-1.98,1.97-3.48,4.56-6,6,.15-2.16.7-2.36,1.5-4.12-3.46-.95-14.34-15.05-15.38-15.38-2.03-.64-3.12,2.88-4.12.75.09-.13,1.2-.33,2.25-2.25.79.14,1.69-.28,2.25-.75,5.12,2.5,22.01,13.42,19.5,15.75Z"/>
            <path class="cls-4" d="m498.25,256c-3.1,2.03-6.59,3.82-9,6.75-2.32-3.15-4.27-6.72-6.75-9.75,3.3-1.55,6.5-3.66,9.75-5.25.11-.05.67.07,2.25-.75l3.75,9Z"/>
            <path class="cls-3" d="m474.25,230.5c-.23,1.72.76,3.1,1.5,4.5.44.84,1.02,1.43,1.5,2.25-6.01,1.88-16.28-14.1-21-20.25.7-.1,1.97-1.2,3-1.5,9.19,2.85,6.91,15.69,15,15Z"/>
            <g>
              <path class="cls-6" d="m502,241.75c.18,2.32-4.8,3.85-7.5,5.25-1.58.82-2.14.7-2.25.75v-7.5c1.48-.82,3.14-1.96,4.5-3,.22.27.49-.95,5.25,4.5Z"/>
              <path class="cls-12" d="m492.25,240.25v7.5c-3.25,1.59-6.45,3.7-9.75,5.25-.21-.26-4.3-.99-4.5-4.88,2.09-.65,3.52-2.18,5.25-3.38,2.01-1.39,6.53-3.14,9-4.5Z"/>
            </g>
            <path class="cls-5" d="m436,167.5l-10.5,7.5c-.79-.92-5.45-4.06-5.25-4.88,3.91-1.38,4.98-3.22,5.25-3.38,5.49-3.27,6.1-3.8,10.5.75Z"/>
            <path class="cls-20" d="m513.25,293.5c2.76-.35,6.45,7.86,9,11.25-1.75,1-3.51,1.99-5.25,3-1.88-4.25-3.78-9.51-6-13.5,1.12-.85,2.15-.69,2.25-.75Z"/>
            <path class="cls-20" d="m550,321.25c.86,1.18,1.23,1.79,2.25,3,2.86,3.4,22.82,27.79,23.25,29.62.05.2-2.89,3.26-.75,4.12-3.47,6.42-.13,4.41,2.25,5.25,1.44.51,2.59-.37,3.38,0,2.49,1.18,4.67,10.09,10.12,8.25.76,1.1,2.21,5.03,2.62,5.25,1.22.63,2.74-.61,3.38-.75,1.13,3.75,4.2,5.95,0,9-3.01,1.56-6.08,3.5-9,5.25,1.81-5.32-17.85-24.86-23.25-27.75.83-.66,6.73-7.33,6.75-7.88.32-7.77-14.7,5.28-18,6.38-3.07-4.5-6.58-10.16-11.25-14.25,1.75-.62,14.12-7.68,14.25-8.62.05-.35-3.02-5.54-4.12-5.62-.69-.05-10.51,6.58-11.62,7.5-3.23-8.93-13.27-18.56-19.5-26.25,3.82-2.14,7.47-4.56,11.25-6.75,6.67,1.07,10.81,7.39,17.62,9,2.77,1.59-2.43,3.26-1.88,4.88.26.75,2.12.2,2.25.38Z"/>
            <path class="cls-5" d="m541.75,346.75c-1.06.37-1.76,1.53-1.88,1.5-.29-.08-3.39-4.58-3.38-4.88.07-1.74,2-1.93,3.75-3.38,1.11-.92,10.94-7.55,11.62-7.5,1.11.08,4.17,5.28,4.12,5.62-.13.95-12.5,8.01-14.25,8.62Z"/>
            <path class="cls-7" d="m564.25,362.5c-4.85,3.84-8.08,5.88-12-.38-.6-.95.79-1.07.75-1.12,3.3-1.09,18.32-14.15,18-6.38-.02.54-5.92,7.22-6.75,7.88Z"/>
            <path class="cls-2" d="m532,298.75c-2.92,2.46-6.46,4.11-9.75,6-2.55-3.39-6.24-11.6-9-11.25,2.29-1.45,4.32-3.12,6.75-4.5,8.08,2.72,5.04,11.32,12,9.75Z"/>
            <path class="cls-7" d="m577,363.25c-2.38-.84-5.72,1.17-2.25-5.25,5.4-10.01,15.98-7.81,15.75-2.62-.11,2.56-11.81,5.4-13.5,7.88Z"/>
          </g>
          <g>
            <path class="cls-14" d="m598,424c4.64,9.9,8.89,9.55,4.12,14.25-4.3,4.24-56.22,36.78-68.25,45-51.92,35.5-119.19,81.9-167.62,120l-1.5-.75c3.6-1.1,13.94-14.48,18-18,22.22-19.28,56.07-39.64,80.62-57,3.3-1.95,2.48,1.46,3.75.75,2.31-1.29,22.3-15.74,13.5-12.75-2.94,1-6.81,9.74-10.12.75,4.8-2.33,28.89-20.19,31.12-20.25,4.98-.14,1.13,6.54,4.5,4.5.26-.16.41-5.7.38-6,7.55-7.94,43.75-32.88,46.5-37.12,2.11-3.26-.36-1.75-.75-2.62,15.05-10.43,28.71-23.21,45.75-30.75Z"/>
            <path class="cls-7" d="m489.25,497.5c-.24.17.77,2.34-1.12,3.75-8.31,4.2-15.42,10.17-22.88,15.75-5.45,4.08-11.05,7.84-16.5,12-20.49,13.21-39.71,28.23-59.25,42.75.25-3.15-2.54,2.31-6.75,0,26.12-21.57,77.5-58.2,106.5-74.25Z"/>
            <path class="cls-14" d="m506.5,494.5c-1.29-12.59-7.4-.73-10.13.75-2.9,1.57-6.25,1.76-7.12,2.25,20.49-15.12,42.11-28.27,63-42.75.39.87,2.86-.63.75,2.62-2.75,4.25-38.95,29.19-46.5,37.12Z"/>
            <path class="cls-15" d="m382.75,584.5c-4.06,3.52-14.4,16.9-18,18-2.57.78-4.47.3-6.75-.75-4.01-7.86-.01-8.08,2.25-9.75,5.95-.75,8.69-.56,13.5-4.5,1.58,5.95,6.44-5.72,9-3Z"/>
            <path class="cls-9" d="m382.75,584.5c-2.56-2.72-7.42,8.95-9,3,.04-.03.11-.25.75-.75,1.53.41,1.57-.71,2.25-1.5,1.26-1.45,2.6-2.97,3.75-4.5,20.84-14.29,40.32-30.42,60.38-45.75.87-.67,2.88-.66,3-.75,1.28-.98,3.91-4.51,4.87-5.25,5.45-4.16,11.05-7.92,16.5-12,2.51.55,3.01.34,5.25-.75,3.31,8.99,7.19.25,10.12-.75,8.8-2.99-11.19,11.46-13.5,12.75-1.27.71-.45-2.7-3.75-.75-24.55,17.36-58.4,37.72-80.62,57Z"/>
            <path class="cls-9" d="m506.5,494.5c.03.3-.12,5.84-.38,6-3.37,2.04.48-4.64-4.5-4.5-2.23.06-26.32,17.92-31.12,20.25-2.24,1.09-2.74,1.3-5.25.75,7.45-5.58,14.57-11.55,22.88-15.75,1.9-1.41.89-3.58,1.12-3.75.88-.49,4.23-.68,7.12-2.25,2.72-1.48,8.83-13.34,10.13-.75Z"/>
            <path class="cls-8" d="m448.75,529c-.97.74-3.59,4.27-4.87,5.25-.12.09-2.13.08-3,.75-20.05,15.33-39.54,31.46-60.38,45.75.66-.87,1.64-1.78,1.5-3,2.57-1.9,4.97-4.12,7.5-6,19.54-14.52,38.76-29.54,59.25-42.75Z"/>
            <path class="cls-20" d="m380.5,580.75c-1.15,1.53-2.49,3.05-3.75,4.5-3.02-.52-2.13,1.41-2.25,1.5-.64.5-.71.72-.75.75-4.81,3.94-7.55,3.75-13.5,4.5,1.67-1.24,10.68-6.05,21.75-14.25.14,1.22-.84,2.13-1.5,3Z"/>
            <path class="cls-15" d="m376.75,585.25c-.68.79-.72,1.91-2.25,1.5.12-.09-.77-2.02,2.25-1.5Z"/>
          </g>
        </g>
      </g>
    </g>
  </g>
</svg>